<svg width="22" height="22" viewBox="0 0 22 22" fill="none"
    xmlns="http://www.w3.org/2000/svg">
    <path d="M11.3541 5.68423C8.33251 5.68423 5.89525 8.02452 5.89525 10.9259C5.89525 13.8273 8.33251 16.1676 11.3541 16.1676C14.3758 16.1676 16.813 13.8273 16.813 10.9259C16.813 8.02452 14.3758 5.68423 11.3541 5.68423ZM11.3541 14.3337C9.40148 14.3337 7.80515 12.8055 7.80515 10.9259C7.80515 9.0464 9.39673 7.51814 11.3541 7.51814C13.3115 7.51814 14.9031 9.0464 14.9031 10.9259C14.9031 12.8055 13.3068 14.3337 11.3541 14.3337V14.3337ZM18.3096 5.46982C18.3096 6.14955 17.7395 6.69242 17.0363 6.69242C16.3284 6.69242 15.7631 6.14499 15.7631 5.46982C15.7631 4.79465 16.3332 4.24721 17.0363 4.24721C17.7395 4.24721 18.3096 4.79465 18.3096 5.46982ZM21.9251 6.71067C21.8443 5.07293 21.4547 3.62222 20.2052 2.42699C18.9605 1.23175 17.4497 0.85767 15.744 0.775555C13.9862 0.679754 8.71734 0.679754 6.95947 0.775555C5.25862 0.853108 3.74781 1.22719 2.4983 2.42242C1.24879 3.61766 0.863959 5.06836 0.778441 6.70611C0.678671 8.39404 0.678671 13.4533 0.778441 15.1412C0.859208 16.7789 1.24879 18.2296 2.4983 19.4249C3.74781 20.6201 5.25387 20.9942 6.95947 21.0763C8.71734 21.1721 13.9862 21.1721 15.744 21.0763C17.4497 20.9987 18.9605 20.6247 20.2052 19.4249C21.45 18.2296 21.8396 16.7789 21.9251 15.1412C22.0249 13.4533 22.0249 8.3986 21.9251 6.71067V6.71067ZM19.6541 16.9523C19.2835 17.8464 18.5661 18.5353 17.6302 18.8957C16.2287 19.4294 12.903 19.3063 11.3541 19.3063C9.80532 19.3063 6.47487 19.4249 5.07808 18.8957C4.14689 18.5398 3.42949 17.851 3.05416 16.9523C2.4983 15.6065 2.62658 12.4131 2.62658 10.9259C2.62658 9.43873 2.50305 6.24079 3.05416 4.89957C3.42474 4.00543 4.14214 3.31657 5.07808 2.95617C6.47962 2.42242 9.80532 2.5456 11.3541 2.5456C12.903 2.5456 16.2334 2.42699 17.6302 2.95617C18.5614 3.31201 19.2788 4.00086 19.6541 4.89957C20.21 6.24535 20.0817 9.43873 20.0817 10.9259C20.0817 12.4131 20.21 15.6111 19.6541 16.9523Z" fill="#545776"/>
</svg>
