<svg width="22" height="22" viewBox="0 0 22 22" fill="none"
    xmlns="http://www.w3.org/2000/svg">
    <path d="M5.31699 21.1481H1.07842V7.49844H5.31699V21.1481ZM3.19543 5.63649C1.84007 5.63649 0.740723 4.51385 0.740723 3.15846C0.740723 2.50742 0.999342 1.88304 1.45969 1.42269C1.92003 0.962329 2.5444 0.703704 3.19543 0.703704C3.84645 0.703704 4.47082 0.962329 4.93116 1.42269C5.39151 1.88304 5.65013 2.50742 5.65013 3.15846C5.65013 4.51385 4.55033 5.63649 3.19543 5.63649ZM21.1806 21.1481H16.9512V14.5036C16.9512 12.92 16.9192 10.8892 14.7474 10.8892C12.5437 10.8892 12.206 12.6097 12.206 14.3895V21.1481H7.97203V7.49844H12.0372V9.36039H12.0965C12.6624 8.28794 14.0447 7.15617 16.1069 7.15617C20.3966 7.15617 21.1852 9.98103 21.1852 13.6502V21.1481H21.1806Z" fill="#545776"/>
</svg>
