<svg width="21" height="20" viewBox="0 0 21 20" fill="none"
    xmlns="http://www.w3.org/2000/svg">
    <path d="M18.5651 5.22608C18.5781 5.43105 18.5781 5.63606 18.5781 5.84103C18.5781 12.0928 14.3621 19.2963 6.65648 19.2963C4.28252 19.2963 2.07723 18.5203 0.222168 17.1733C0.559463 17.2172 0.88374 17.2319 1.23401 17.2319C3.19281 17.2319 4.996 16.4852 6.43595 15.2114C4.59386 15.1675 3.05014 13.8059 2.51826 11.9318C2.77773 11.9757 3.03716 12.005 3.30961 12.005C3.6858 12.005 4.06202 11.9464 4.41226 11.8439C2.49235 11.4047 1.05237 9.50132 1.05237 7.20265V7.14411C1.61016 7.4955 2.25883 7.71512 2.94632 7.74436C1.81772 6.89516 1.07832 5.4457 1.07832 3.80587C1.07832 2.92741 1.28584 2.12215 1.64909 1.41936C3.71171 4.28904 6.81213 6.16308 10.2887 6.36809C10.2239 6.0167 10.1849 5.65071 10.1849 5.28467C10.1849 2.67851 12.053 0.555555 14.375 0.555555C15.5814 0.555555 16.6711 1.12656 17.4365 2.04896C18.3835 1.84399 19.2915 1.44866 20.0958 0.906947C19.7845 2.00506 19.1229 2.92746 18.2538 3.51307C19.097 3.41063 19.9142 3.14703 20.6666 2.78103C20.0959 3.71803 19.3824 4.55255 18.5651 5.22608V5.22608Z" fill="#545776"/>
</svg>
